<?xml version="1.0" encoding="utf-8"?>
<svg viewBox="0.0001 0 100.0009 87.5486" width="100.0009" height="87.5486" xmlns="http://www.w3.org/2000/svg">
  <g transform="matrix(0.037335000932216644, 0, 0, -0.037335000932216644, -9.375149726867676, 118.34996032714844)" fill="#000000" stroke="none">
    <path d="M1532 3153 c-11 -10 -99 -155 -195 -323 -250 -437 -518 -905 -602 -1050 -151 -262 -430 -747 -457 -795 -35 -64 -36 -104 -2 -136 l26 -24 1288 0 1288 0 26 24 c30 28 34 67 10 112 -8 17 -115 204 -238 417 -476 828 -853 1483 -933 1624 -46 82 -93 152 -103 158 -29 16 -86 12 -108 -7z m116 -330 c63 -111 413 -720 797 -1388 186 -322 245 -427 245 -431 0 -2 -495 -4 -1100 -4 -605 0 -1100 2 -1100 4 0 5 125 223 544 951 130 226 307 534 393 686 87 152 161 275 164 273 4 -2 29 -43 57 -91z"/>
    <path d="M1500 2189 c-109 -21 -267 -134 -304 -218 l-19 -40 26 -44 c58 -99 189 -185 317 -208 138 -24 288 27 395 135 85 86 93 105 70 157 -25 54 -124 143 -202 180 -96 46 -183 58 -283 38z m245 -79 c43 -17 78 -41 127 -89 37 -37 68 -75 68 -84 0 -24 -81 -109 -138 -146 -124 -78 -289 -80 -418 -5 -50 29 -144 127 -144 149 0 18 79 106 124 138 16 11 57 31 90 44 81 30 203 28 291 -7z"/>
    <path d="M1515 2106 c-63 -28 -105 -94 -105 -166 0 -50 15 -88 48 -123 39 -42 75 -57 132 -57 58 0 93 15 131 57 38 41 49 66 49 117 0 56 -14 93 -48 130 -51 54 -140 72 -207 42z m132 -7 c38 -14 83 -57 99 -96 45 -105 -39 -233 -153 -233 -88 0 -173 81 -173 166 0 117 120 204 227 163z"/>
    <path d="M1523 2081 c-106 -50 -120 -196 -25 -269 48 -37 131 -38 180 -4 38 27 72 89 72 129 -1 113 -125 191 -227 144z m117 -57 c0 -3 -18 -28 -40 -54 -22 -26 -40 -50 -40 -53 0 -3 21 1 47 9 25 8 48 12 50 10 2 -2 -10 -26 -28 -52 -23 -37 -30 -42 -25 -22 3 14 9 33 12 42 6 14 2 14 -37 1 -23 -8 -44 -14 -45 -12 -2 2 -1 33 3 70 l6 67 48 0 c27 0 49 -3 49 -6z"/>
    <path d="M1087 1772 c-10 -10 -17 -31 -17 -47 0 -17 -10 -37 -25 -51 -30 -28 -33 -74 -6 -98 17 -15 30 -17 83 -10 98 12 108 9 328 -78 23 -9 19 -12 -60 -44 -122 -50 -184 -60 -255 -39 -54 15 -58 15 -88 -2 -44 -26 -50 -81 -13 -111 16 -12 26 -30 26 -46 0 -33 33 -66 65 -66 27 0 44 14 89 73 18 23 52 48 90 66 68 33 271 111 286 111 6 0 80 -27 165 -60 154 -61 173 -73 241 -153 21 -25 40 -37 58 -37 33 0 66 33 66 66 0 16 10 34 25 46 30 24 34 77 8 100 -31 26 -54 29 -113 12 -70 -19 -127 -10 -250 40 -79 32 -83 35 -60 44 218 86 209 84 304 78 75 -5 92 -3 108 11 26 23 23 69 -7 97 -16 15 -25 34 -25 53 0 36 -27 63 -63 63 -27 0 -67 -30 -67 -50 0 -25 -85 -100 -133 -119 -29 -11 -98 -38 -155 -59 l-102 -40 -152 59 c-161 62 -202 90 -238 160 -27 52 -81 67 -113 31z"/>
  </g>
</svg>