<?xml version="1.0" encoding="UTF-8" standalone="no"?>
<svg
   viewBox="0 0 25 25"
   width="50px"
   version="1.1"
   id="svg2"
   sodipodi:docname="star_f2.svg"
   inkscape:version="1.3.2 (091e20e, 2023-11-25, custom)"
   xmlns:inkscape="http://www.inkscape.org/namespaces/inkscape"
   xmlns:sodipodi="http://sodipodi.sourceforge.net/DTD/sodipodi-0.dtd"
   xmlns="http://www.w3.org/2000/svg"
   xmlns:svg="http://www.w3.org/2000/svg">
  <defs
     id="defs2" />
  <sodipodi:namedview
     id="namedview2"
     pagecolor="#ffffff"
     bordercolor="#111111"
     borderopacity="1"
     inkscape:showpageshadow="0"
     inkscape:pageopacity="0"
     inkscape:pagecheckerboard="1"
     inkscape:deskcolor="#d1d1d1"
     inkscape:zoom="11.610693"
     inkscape:cx="39.661714"
     inkscape:cy="16.579544"
     inkscape:window-width="1920"
     inkscape:window-height="1017"
     inkscape:window-x="-8"
     inkscape:window-y="-8"
     inkscape:window-maximized="1"
     inkscape:current-layer="svg2" />
  <path
     d="m 6.2519494,22.813489 6.2573276,-3.956623 6.257328,4.029249 -1.599382,-7.523888 5.515842,-5.000122 -7.277186,-0.7035677 -2.896602,-7.038704 -2.8510498,7.0311387 -7.2761738,0.662716 5.5153357,5.02433 z m -1.552311,2.256966 H -0.14405842 V 9.4885714 -0.14702884 H 12.509277 25.162613 V 9.4885714 25.070455 H 20.359406 12.76538 Z M 12.509277,13.226306 Z"
     style="fill:#ffffff;stroke-width:0.505241"
     id="path1" />
  <path
     d="M 7.2228402,21.269958 12.52342,18.049782 17.824,21.329067 16.469164,15.2056 21.141632,11.13615 14.97713,10.563538 12.52342,4.8349485 10.108297,10.55738 3.9446529,11.096745 8.6166916,15.185897 Z M 5.9078783,23.106834 7.6550157,15.514277 1.8047844,10.425207 9.5196297,9.733968 12.52342,2.5830824 l 3.042806,7.1508856 7.675829,0.691239 -5.851516,5.08907 1.782722,7.592557 L 12.54057,19.06858 Z M 12.52342,13.467237 Z"
     id="path2"
     style="stroke-width:0.41951" />
</svg>
