<?xml version="1.0" encoding="utf-8"?>
<svg viewBox="0 0 50 50" xmlns="http://www.w3.org/2000/svg" width="70px">
  <path d="M 12.637 45.525 L 25 37.68 L 37.363 45.669 L 34.203 30.751 L 45.101 20.837 L 30.723 19.442 L 25 5.486 L 19.367 19.427 L 4.991 20.741 L 15.888 30.703 L 12.637 45.525 Z M 9.57 50 L 0 50 L 0 19.105 L 0 0 L 25 0 L 50 0 L 50 19.105 L 50 50 L 40.51 50 L 25.506 50 L 9.57 50 Z M 25 26.516 Z" style="fill: rgb(255, 255, 255);" transform="matrix(0.9999999999999999, 0, 0, 0.9999999999999999, 0, 0)"/>
  <path d="M 12.637 45.525 L 25 37.68 L 37.363 45.669 L 34.203 30.751 L 45.101 20.837 L 30.723 19.442 L 25 5.486 L 19.367 19.427 L 4.991 20.741 L 15.888 30.703 L 12.637 45.525 Z M 9.57 50 L 13.645 31.503 L 0 19.105 L 17.994 17.421 L 25 0 L 32.097 17.421 L 50 19.105 L 36.352 31.503 L 40.51 50 L 25.04 40.162 L 9.57 50 Z M 25 26.516 Z" style="" transform="matrix(0.9999999999999999, 0, 0, 0.9999999999999999, 0, 0)"/>
</svg>